<svg xmlns="http://www.w3.org/2000/svg" width="34.573" height="27.212" viewBox="0 0 34.573 27.212">
  <g id="camera" transform="translate(0 0)">
    <g id="Group_3434" data-name="Group 3434" transform="translate(0 0)">
      <g id="Group_3433" data-name="Group 3433" transform="translate(0 0)">
        <path id="Path_541" data-name="Path 541" d="M33.423,49.04a3.717,3.717,0,0,0-2.728-1.15H25.24v-.066a2.951,2.951,0,0,0-.887-2.136,3.007,3.007,0,0,0-2.136-.887H12.357A3.03,3.03,0,0,0,9.3,47.824v.066H3.878A3.717,3.717,0,0,0,1.15,49.04,3.907,3.907,0,0,0,0,51.767V68.134a3.717,3.717,0,0,0,1.15,2.728,3.907,3.907,0,0,0,2.728,1.15H30.7a3.717,3.717,0,0,0,2.728-1.15,3.907,3.907,0,0,0,1.15-2.728V51.767A3.717,3.717,0,0,0,33.423,49.04Zm-.559,19.094h-.033A2.132,2.132,0,0,1,30.7,70.27H3.878a2.132,2.132,0,0,1-2.136-2.136V51.767a2.132,2.132,0,0,1,2.136-2.136h6.343a.884.884,0,0,0,.887-.887v-.953a1.237,1.237,0,0,1,1.282-1.282h9.826A1.237,1.237,0,0,1,23.5,47.791v.953a.884.884,0,0,0,.887.887h6.343a2.132,2.132,0,0,1,2.136,2.136Z" transform="translate(0 -44.8)" fill="#ffd96a"/>
        <path id="Path_542" data-name="Path 542" d="M120.085,130.8a8.079,8.079,0,1,0,5.718,2.366A8.1,8.1,0,0,0,120.085,130.8Zm4.47,12.587a6.348,6.348,0,0,1-8.939,0,6.283,6.283,0,0,1-1.84-4.47,6.422,6.422,0,0,1,1.84-4.47,6.283,6.283,0,0,1,4.47-1.84,6.422,6.422,0,0,1,4.47,1.84,6.283,6.283,0,0,1,1.84,4.47A6.15,6.15,0,0,1,124.554,143.387Z" transform="translate(-102.798 -123.734)" fill="#ffd96a"/>
        <circle id="Ellipse_26" data-name="Ellipse 26" cx="1.61" cy="1.61" r="1.61" transform="translate(27.376 7.033)" fill="#ffd96a"/>
      </g>
    </g>
  </g>
</svg>
