<svg xmlns="http://www.w3.org/2000/svg" width="30" height="33.595" viewBox="0 0 30 33.595">
  <g id="management" transform="translate(-0.5)">
    <path id="Path_613" data-name="Path 613" d="M55.575,18.973v-1.15a.538.538,0,0,0,.492-.575V13.8a.538.538,0,0,0-.492-.575H52.92l-.1-.432a11.675,11.675,0,0,0-1-2.809l-.2-.385L53.51,7.39a.64.64,0,0,0,0-.8L51.422,4.14a.448.448,0,0,0-.689,0L48.845,6.348l-.329-.23a8.442,8.442,0,0,0-2.405-1.173l-.369-.112V1.725a.538.538,0,0,0-.492-.575H42.3a.538.538,0,0,0-.492.575v3.1l-.369.112a8.44,8.44,0,0,0-2.4,1.172l-.329.23-1.888-2.2a.448.448,0,0,0-.691,0L34.04,6.581a.641.641,0,0,0,0,.809L35.928,9.6l-.2.385a11.674,11.674,0,0,0-1,2.809l-.1.432H31.975a.538.538,0,0,0-.492.575v3.45a.538.538,0,0,0,.492.575v1.15A1.615,1.615,0,0,1,30.5,17.248V13.8a1.615,1.615,0,0,1,1.475-1.725h1.9a12.907,12.907,0,0,1,.818-2.29L33.343,8.2a1.931,1.931,0,0,1,0-2.434l2.09-2.443a1.353,1.353,0,0,1,2.082,0l1.352,1.58a9.3,9.3,0,0,1,1.958-.956V1.725A1.615,1.615,0,0,1,42.3,0h2.95a1.615,1.615,0,0,1,1.475,1.725V3.95a9.307,9.307,0,0,1,1.958.956l1.352-1.581a1.354,1.354,0,0,1,2.082,0l2.089,2.443a1.932,1.932,0,0,1,0,2.434L52.855,9.783a12.957,12.957,0,0,1,.818,2.291h1.9A1.615,1.615,0,0,1,57.05,13.8v3.45a1.615,1.615,0,0,1-1.475,1.725Zm0,0" transform="translate(-28.275)" fill="#ffd96a"/>
    <path id="Path_614" data-name="Path 614" d="M175.793,138.049H174.7a6.563,6.563,0,1,0-13.108,0H160.5a7.657,7.657,0,1,1,15.293,0Zm0,0" transform="translate(-152.647 -122.781)" fill="#ffd96a"/>
    <path id="Path_615" data-name="Path 615" d="M243.95,236.9a3.45,3.45,0,1,1,3.45-3.45A3.45,3.45,0,0,1,243.95,236.9Zm0-5.749a2.3,2.3,0,1,0,2.3,2.3A2.3,2.3,0,0,0,243.95,231.15Zm0,0" transform="translate(-228.45 -217.209)" fill="#ffd96a"/>
    <path id="Path_616" data-name="Path 616" d="M413.95,276.9a3.45,3.45,0,1,1,3.45-3.45A3.45,3.45,0,0,1,413.95,276.9Zm0-5.749a2.3,2.3,0,1,0,2.3,2.3A2.3,2.3,0,0,0,413.95,271.15Zm0,0" transform="translate(-390.924 -254.984)" fill="#ffd96a"/>
    <path id="Path_617" data-name="Path 617" d="M73.95,276.9a3.45,3.45,0,1,1,3.45-3.45A3.45,3.45,0,0,1,73.95,276.9Zm0-5.749a2.3,2.3,0,1,0,2.3,2.3A2.3,2.3,0,0,0,73.95,271.15Zm0,0" transform="translate(-65.976 -254.984)" fill="#ffd96a"/>
    <path id="Path_618" data-name="Path 618" d="M28.533,363.2A4.057,4.057,0,0,0,26,362.3H22a3.913,3.913,0,0,0-.726.076,4.918,4.918,0,0,0-1.224-1.461,1.935,1.935,0,0,0-.23-.172A4.038,4.038,0,0,0,17.5,360h-4a4.344,4.344,0,0,0-3.773,2.375A3.929,3.929,0,0,0,9,362.3H5a4.056,4.056,0,0,0-2.531.9A5.427,5.427,0,0,0,.5,367.473v2.3a4.1,4.1,0,0,0,2.036,3.653A3.025,3.025,0,0,0,4,373.8H9v-1.15H4.5v-6.324h-1v6.267a2.14,2.14,0,0,1-.545-.208A2.933,2.933,0,0,1,1.5,369.773v-2.3a4.225,4.225,0,0,1,1.533-3.327,3.152,3.152,0,0,1,1.967-.7H9c.088,0,.173.011.259.017A5.876,5.876,0,0,0,9,365.174v5.749a2.71,2.71,0,0,0,2.5,2.875H13v-9.2H12v8.049h-.5a1.624,1.624,0,0,1-1.5-1.725v-5.749a3.79,3.79,0,0,1,3.5-4.025h4a3.162,3.162,0,0,1,1.822.592,1.24,1.24,0,0,1,.146.107,3.937,3.937,0,0,1,1.121,1.437A4.5,4.5,0,0,1,21,365.174v5.749a1.624,1.624,0,0,1-1.5,1.725H19V364.6H18v9.2h1.5a2.71,2.71,0,0,0,2.5-2.875v-5.749a5.89,5.89,0,0,0-.259-1.707c.086-.007.171-.018.259-.018h4a3.154,3.154,0,0,1,1.968.7,4.226,4.226,0,0,1,1.532,3.326v2.3a2.93,2.93,0,0,1-1.464,2.613,2.1,2.1,0,0,1-.536.2v-6.267h-1v6.324H22v1.15h5a3.017,3.017,0,0,0,1.455-.367,4.1,4.1,0,0,0,2.045-3.658v-2.3a5.428,5.428,0,0,0-1.967-4.274Zm0,0" transform="translate(0 -340.203)" fill="#ffd96a"/>
    <path id="Path_619" data-name="Path 619" d="M260.5,580h4.6v1.15h-4.6Zm0,0" transform="translate(-247.3 -547.555)" fill="#ffd96a"/>
  </g>
</svg>
