<svg xmlns="http://www.w3.org/2000/svg" width="26.738" height="24.355" viewBox="0 0 26.738 24.355">
  <path id="discuss-issue" d="M20.457,21.916a2.217,2.217,0,0,1-1.02,1.664c-.163.137-.467.387-.466.48a.653.653,0,0,1-.658.658h-.006a.655.655,0,0,1-.663-.648,1.985,1.985,0,0,1,.939-1.5c.33-.277.547-.473.547-.651a.656.656,0,0,0-1.312,0,.663.663,0,0,1-1.326,0,1.982,1.982,0,0,1,3.963,0ZM18.326,25.33a.651.651,0,0,0-.648.663V26a.648.648,0,0,0,.648.66.664.664,0,0,0,0-1.328ZM4.964,29.948a.663.663,0,1,0,0,1.326h.055a.663.663,0,0,0,0-1.326Zm2.3,0a.663.663,0,0,0,0,1.326h.055a.663.663,0,0,0,0-1.326ZM26.738,19.36v7.462a3.187,3.187,0,0,1-3.183,3.2h-8.6c-.168,0-.306,0-.422,0s-.258,0-.311,0c-.055.037-.191.161-.322.282l-.174.158L11.3,32.678a.678.678,0,0,1-1.13-.49V25.16H3.22a1.9,1.9,0,0,0-1.894,1.884v7.462a1.87,1.87,0,0,0,1.894,1.85h9.6a.666.666,0,0,1,.442.187l1.982,1.827v-6.3a.663.663,0,1,1,1.326,0v7.8a.654.654,0,0,1-.391.6.636.636,0,0,1-.263.053.67.67,0,0,1-.447-.18l-2.906-2.667H3.22A3.2,3.2,0,0,1,0,34.506V27.045a3.227,3.227,0,0,1,3.22-3.21h6.944V19.36A3.216,3.216,0,0,1,13.4,16.174H23.555A3.174,3.174,0,0,1,26.738,19.36Zm-1.326,0a1.847,1.847,0,0,0-1.857-1.86H13.4a1.888,1.888,0,0,0-1.906,1.86V30.686l1.333-1.2c.062-.056.131-.108.181-.154a1.674,1.674,0,0,1,1.558-.634c.108,0,.237,0,.394,0h8.6a1.859,1.859,0,0,0,1.857-1.874V19.36Z" transform="translate(0 -16.174)" fill="#555"/>
</svg>
