<svg xmlns="http://www.w3.org/2000/svg" width="384.828" height="471.706" viewBox="0 0 384.828 471.706">
  <g id="Group_4060" data-name="Group 4060" transform="translate(13880 1742)">
    <g id="add-documents" transform="translate(-13923.439 -1740)">
      <g id="Group_4058" data-name="Group 4058">
        <g id="Group_4059" data-name="Group 4059">
          <path id="Path_5921" data-name="Path 5921" d="M223.656,114.536v99.412l105.566-1.119L228.878,111.551Z" fill="#ffd96a"/>
          <path id="Path_5918" data-name="Path 5918" d="M426.19,115.25a5.883,5.883,0,0,0-.3-1.533c-.072-.191-.119-.376-.2-.561a5.946,5.946,0,0,0-1.169-1.748L314.86,1.748A5.949,5.949,0,0,0,313.112.584a5.261,5.261,0,0,0-.561-.2,6.14,6.14,0,0,0-1.539-.3c-.126,0-.245-.077-.377-.077H136.486a5.969,5.969,0,0,0-5.967,5.967V97.821H49.406a5.969,5.969,0,0,0-5.967,5.967V463.739a5.965,5.965,0,0,0,5.967,5.967H333.22a5.965,5.965,0,0,0,5.967-5.967V371.885H420.3a5.965,5.965,0,0,0,5.967-5.967V115.626A3.793,3.793,0,0,0,426.19,115.25ZM405.9,109.659H316.608V20.371ZM327.253,457.766H55.373V109.755H217.6V213.447a5.969,5.969,0,0,0,5.967,5.967H327.254V457.766ZM229.528,118.192l89.288,89.288H229.528V118.192ZM339.187,359.951v-146.5a3.8,3.8,0,0,0-.078-.376,5.883,5.883,0,0,0-.3-1.533c-.072-.191-.119-.376-.2-.561a5.946,5.946,0,0,0-1.169-1.748L227.779,99.569a5.969,5.969,0,0,0-1.748-1.17c-.185-.084-.37-.131-.561-.2a5.642,5.642,0,0,0-1.539-.3c-.125-.006-.245-.078-.376-.078h-81.1V11.934H304.674V115.626a5.965,5.965,0,0,0,5.967,5.967H414.333V359.952H339.187Z" fill="#ffd96a"/>
          <path id="Path_5919" data-name="Path 5919" d="M197.283,235.28H185.349v42.514H142.835v11.933h42.514v42.514h11.934V289.727H239.8V277.794H197.283Z" fill="#ffd96a"/>
        </g>
      </g>
    </g>
    <path id="Subtraction_1" data-name="Subtraction 1" d="M382.861,371.885H303.5V359.952h73.394V121.593H273.2a5.974,5.974,0,0,1-5.967-5.967V11.934H105.014V94.36l-11.934.13V5.967A5.974,5.974,0,0,1,99.047,0H273.2a.7.7,0,0,1,.2.04.733.733,0,0,0,.177.038,6.157,6.157,0,0,1,1.539.3c.06.022.121.041.181.061a2.83,2.83,0,0,1,.38.143,5.917,5.917,0,0,1,1.748,1.164L387.081,111.408a5.883,5.883,0,0,1,1.169,1.748c.044.106.08.213.114.318.026.079.053.161.083.243a5.876,5.876,0,0,1,.3,1.534.933.933,0,0,0,.037.163.767.767,0,0,1,.04.212V365.918A5.974,5.974,0,0,1,382.861,371.885ZM279.169,20.371v89.288h89.288Z" transform="translate(-13886 -1740)" fill="#ffd96a" stroke="#ffd96a" stroke-width="4"/>
  </g>
</svg>
