<svg xmlns="http://www.w3.org/2000/svg" width="27.766" height="30.851" viewBox="0 0 27.766 30.851">
  <g id="archive" transform="translate(-3)" opacity="0.6">
    <path id="Path_606" data-name="Path 606" d="M29.309,0H4.456A1.458,1.458,0,0,0,3,1.456V29.395a1.458,1.458,0,0,0,1.456,1.456H29.309a1.458,1.458,0,0,0,1.456-1.456V1.456A1.458,1.458,0,0,0,29.309,0ZM4.456,1.028H29.309a.428.428,0,0,1,.428.428V14.911H4.028V1.456A.428.428,0,0,1,4.456,1.028ZM29.309,29.822H4.456a.428.428,0,0,1-.428-.428V15.94H29.737V29.395A.428.428,0,0,1,29.309,29.822Z" fill="#fff"/>
    <path id="Path_607" data-name="Path 607" d="M22.851,15.168h5.8A1.852,1.852,0,0,0,30.5,13.317v-.789a.528.528,0,1,0-1.056,0v.789a.8.8,0,0,1-.795.795h-5.8a.8.8,0,0,1-.795-.795v-.789a.528.528,0,1,0-1.056,0v.789A1.852,1.852,0,0,0,22.851,15.168Z" transform="translate(-8.869 -5.848)" fill="#fff"/>
    <path id="Path_608" data-name="Path 608" d="M29.976,41a.527.527,0,0,0-.528.528v.789a.8.8,0,0,1-.795.795h-5.8a.8.8,0,0,1-.795-.795v-.789a.528.528,0,1,0-1.056,0v.789a1.852,1.852,0,0,0,1.851,1.851h5.8A1.852,1.852,0,0,0,30.5,42.317v-.789A.527.527,0,0,0,29.976,41Z" transform="translate(-8.869 -19.982)" fill="#fff"/>
  </g>
</svg>
