<svg xmlns="http://www.w3.org/2000/svg" width="30" height="30.035" viewBox="0 0 30 30.035">
  <g id="discount" transform="translate(-0.299)">
    <g id="Group_3618" data-name="Group 3618" transform="translate(0.299)">
      <g id="Group_3617" data-name="Group 3617" transform="translate(0)">
        <path id="Path_626" data-name="Path 626" d="M27.8,0H19.784a5.05,5.05,0,0,0-3.859,1.649.5.5,0,1,0,.708.708A4.032,4.032,0,0,1,19.784,1H27.8a1.5,1.5,0,0,1,1.5,1.5v8.01a4.028,4.028,0,0,1-1.356,3.151L13.071,28.553a1.539,1.539,0,0,1-2.124,0l-9.206-9.2a1.5,1.5,0,0,1,0-2.124L15.181,3.806c.206.053.414.105.628.163a38.053,38.053,0,0,1,4.843,1.613,3,3,0,1,0,2.636-1.576.5.5,0,1,0,0,1,2.007,2.007,0,1,1-1.722.984,6.434,6.434,0,0,1,1.624.988,2.416,2.416,0,0,1-.447.074.5.5,0,0,0,.044,1l.045,0c.308-.028,1.245-.11,1.425-.782C24.749,5.426,17.522,3.391,16.069,3a36.922,36.922,0,0,0-6.014-1.147c-2.034-.178-3.024.054-3.21.749-.09.334-.327,1.221,3.732,2.821a.5.5,0,1,0,.368-.931A9.766,9.766,0,0,1,7.909,2.886c.618-.181,2.73-.129,6.13.644L1.033,16.517a2.5,2.5,0,0,0,0,3.54l9.206,9.2a2.5,2.5,0,0,0,3.541,0L28.65,14.372A5.046,5.046,0,0,0,30.3,10.513V2.5A2.506,2.506,0,0,0,27.8,0Z" transform="translate(-0.299)" fill="#ffd96a"/>
        <path id="Path_627" data-name="Path 627" d="M278.736,311.007a.579.579,0,0,0-.794.207l-6.649,11.341a1.736,1.736,0,0,1-2.352.653l-1.3-.839a.58.58,0,0,0-.631.973l1.321.855a2.9,2.9,0,0,0,3.959-1.058l6.647-11.338A.58.58,0,0,0,278.736,311.007Z" transform="translate(-253.391 -294.549)" fill="#ffd96a"/>
        <path id="Path_628" data-name="Path 628" d="M204.348,239.514v8.121a.58.58,0,0,0,1.16,0v-8.121a.58.58,0,0,0-1.16,0Z" transform="translate(-192.44 -225.721)" fill="#ffd96a"/>
        <path id="Path_629" data-name="Path 629" d="M255.548,257.16a1.16,1.16,0,1,0,1.16-1.16A1.161,1.161,0,0,0,255.548,257.16Z" transform="translate(-240.74 -241.148)" fill="#ffd96a"/>
        <path id="Path_630" data-name="Path 630" d="M136.081,308.36a1.16,1.16,0,1,0,1.16-1.16A1.161,1.161,0,0,0,136.081,308.36Z" transform="translate(-128.204 -289.378)" fill="#ffd96a"/>
      </g>
    </g>
  </g>
</svg>
