<svg xmlns="http://www.w3.org/2000/svg" width="59.912" height="56" viewBox="0 0 59.912 56">
  <g id="viewlist" transform="translate(0.001 -1.955)">
    <path id="Path_5922" data-name="Path 5922" d="M59.6,23.4a1.27,1.27,0,0,0-.965-.443H56V8.723a1.77,1.77,0,0,0-1.768-1.768H23.566L21.081,2.814a1.775,1.775,0,0,0-1.516-.859H5.767A1.771,1.771,0,0,0,4,3.723V22.955H1.271A1.271,1.271,0,0,0,.014,24.416L4.932,56.877a1.265,1.265,0,0,0,1.256,1.078H53.722a1.265,1.265,0,0,0,1.257-1.081L59.9,24.42A1.267,1.267,0,0,0,59.6,23.4ZM6,3.956H19.434L21.919,8.1a1.775,1.775,0,0,0,1.516.859H54v14H53v-4H52v-3H51v-3H9v3H8v3H7v4H6Zm3,17H51v2H9Zm1-3H50v1H10Zm39-2H11v-1H49Zm4.1,40H6.815l-4.7-31H57.793Z" fill="#ffd96a"/>
    <path id="Path_5923" data-name="Path 5923" d="M26.956,50.956h21v-14h-21v14Zm2-12h17v10h-17v-10Z" fill="#ffd96a"/>
    <path id="Path_5924" data-name="Path 5924" d="M31.956,42.956h4a1,1,0,0,0,0-2h-4a1,1,0,0,0,0,2Z" fill="#ffd96a"/>
    <path id="Path_5925" data-name="Path 5925" d="M39.956,42.956h1a1,1,0,0,0,0-2h-1a1,1,0,0,0,0,2Z" fill="#ffd96a"/>
    <path id="Path_5926" data-name="Path 5926" d="M42.956,44.956h-11a1,1,0,0,0,0,2h11a1,1,0,0,0,0-2Z" fill="#ffd96a"/>
  </g>
</svg>
