<svg xmlns="http://www.w3.org/2000/svg" width="22.817" height="22.817" viewBox="0 0 22.817 22.817">
  <g id="resume" transform="translate(0 0)">
    <g id="Group_3620" data-name="Group 3620">
      <g id="Group_3619" data-name="Group 3619">
        <path id="Path_638" data-name="Path 638" d="M18.457,6.629a.446.446,0,0,0,.446-.446V1.337A1.338,1.338,0,0,0,17.566,0H1.344A1.338,1.338,0,0,0,.007,1.337V21.48a1.338,1.338,0,0,0,1.337,1.337H17.566A1.338,1.338,0,0,0,18.9,21.48V18.2a.446.446,0,1,0-.891,0V21.48a.446.446,0,0,1-.446.446H1.344A.446.446,0,0,1,.9,21.48V1.337A.446.446,0,0,1,1.344.891H17.566a.446.446,0,0,1,.446.446V6.183A.446.446,0,0,0,18.457,6.629Z" transform="translate(-0.007)" fill="#ffd96a"/>
      </g>
    </g>
    <g id="Group_3622" data-name="Group 3622" transform="translate(5.348 2.406)">
      <g id="Group_3621" data-name="Group 3621">
        <path id="Path_639" data-name="Path 639" d="M124.107,54a4.1,4.1,0,0,0-2.813,7.08.44.44,0,0,0,.048.045,4.092,4.092,0,0,0,5.53,0,.446.446,0,0,0,.048-.045A4.1,4.1,0,0,0,124.107,54Zm0,7.309a3.192,3.192,0,0,1-1.938-.654,2.228,2.228,0,0,1,3.876,0A3.192,3.192,0,0,1,124.107,61.309Zm-.713-3.387v-.29a.713.713,0,1,1,1.426,0v.29a.713.713,0,1,1-1.426,0Zm3.3,2.08a3.092,3.092,0,0,0-1.313-1.1,1.6,1.6,0,0,0,.335-.98v-.29a1.6,1.6,0,1,0-3.209,0v.29a1.6,1.6,0,0,0,.335.98,3.092,3.092,0,0,0-1.313,1.1,3.209,3.209,0,1,1,5.164,0Z" transform="translate(-120.007 -54)" fill="#ffd96a"/>
      </g>
    </g>
    <g id="Group_3624" data-name="Group 3624" transform="translate(9.002 19.519)">
      <g id="Group_3623" data-name="Group 3623">
        <path id="Path_640" data-name="Path 640" d="M204.859,438h-2.407a.446.446,0,0,0,0,.891h2.407a.446.446,0,0,0,0-.891Z" transform="translate(-202.007 -438)" fill="#ffd96a"/>
      </g>
    </g>
    <g id="Group_3626" data-name="Group 3626" transform="translate(5.08 17.024)">
      <g id="Group_3625" data-name="Group 3625">
        <path id="Path_641" data-name="Path 641" d="M120.781,382h-6.328a.446.446,0,0,0,0,.891h6.328a.446.446,0,0,0,0-.891Z" transform="translate(-114.007 -382)" fill="#ffd96a"/>
      </g>
    </g>
    <g id="Group_3628" data-name="Group 3628" transform="translate(5.08 14.528)">
      <g id="Group_3627" data-name="Group 3627">
        <path id="Path_642" data-name="Path 642" d="M120.781,326h-6.328a.446.446,0,0,0,0,.891h6.328a.446.446,0,0,0,0-.891Z" transform="translate(-114.007 -326)" fill="#ffd96a"/>
      </g>
    </g>
    <g id="Group_3630" data-name="Group 3630" transform="translate(3.177 12.032)">
      <g id="Group_3629" data-name="Group 3629">
        <path id="Path_643" data-name="Path 643" d="M72.048,270.131a.445.445,0,1,0,.131.315A.449.449,0,0,0,72.048,270.131Z" transform="translate(-71.287 -270)" fill="#ffd96a"/>
      </g>
    </g>
    <g id="Group_3632" data-name="Group 3632" transform="translate(3.177 14.528)">
      <g id="Group_3631" data-name="Group 3631">
        <path id="Path_644" data-name="Path 644" d="M72.048,326.131a.445.445,0,1,0,.131.315A.45.45,0,0,0,72.048,326.131Z" transform="translate(-71.287 -326)" fill="#ffd96a"/>
      </g>
    </g>
    <g id="Group_3634" data-name="Group 3634" transform="translate(3.177 17.024)">
      <g id="Group_3633" data-name="Group 3633">
        <path id="Path_645" data-name="Path 645" d="M72.048,382.131a.445.445,0,1,0,.131.315A.45.45,0,0,0,72.048,382.131Z" transform="translate(-71.287 -382)" fill="#ffd96a"/>
      </g>
    </g>
    <g id="Group_3636" data-name="Group 3636" transform="translate(5.08 12.032)">
      <g id="Group_3635" data-name="Group 3635">
        <path id="Path_646" data-name="Path 646" d="M120.781,270h-6.328a.446.446,0,1,0,0,.891h6.328a.446.446,0,1,0,0-.891Z" transform="translate(-114.007 -270)" fill="#ffd96a"/>
      </g>
    </g>
    <g id="Group_3638" data-name="Group 3638" transform="translate(13.262 5.556)">
      <g id="Group_3637" data-name="Group 3637">
        <path id="Path_647" data-name="Path 647" d="M306.209,124.927a1.872,1.872,0,0,0-2.557.685l-5.608,9.713a.446.446,0,0,0-.057.173l-.395,3.536a.446.446,0,0,0,.707.408l2.865-2.11a.445.445,0,0,0,.122-.136l5.608-9.713A1.874,1.874,0,0,0,306.209,124.927Zm-7.618,13.194.206-1.846,1.29.745Zm2.146-1.756-1.7-.98,4.5-7.795,1.7.98Zm5.385-9.328-.439.761-1.7-.98.439-.761a.98.98,0,0,1,1.7.98Z" transform="translate(-297.589 -124.675)" fill="#ffd96a"/>
      </g>
    </g>
  </g>
</svg>
