<svg xmlns="http://www.w3.org/2000/svg" width="30" height="30" viewBox="0 0 30 30">
  <g id="Group_3680" data-name="Group 3680" transform="translate(-393 -262)">
    <circle id="Ellipse_32" data-name="Ellipse 32" cx="15" cy="15" r="15" transform="translate(393 262)" fill="#393737"/>
    <g id="Group_3679" data-name="Group 3679" transform="translate(400.171 269.963)">
      <path id="Path_601" data-name="Path 601" d="M150.341,148.205v-2.459a2.119,2.119,0,0,0,.647-1.534v-3.226A3.591,3.591,0,0,0,147.4,137.4h-.692a3.591,3.591,0,0,0-3.587,3.587v3.226a2.149,2.149,0,0,0,.647,1.534v2.459a26.619,26.619,0,0,0-4.421,2.88.684.684,0,0,0,.872,1.053,24.369,24.369,0,0,1,4.459-2.857.818.818,0,0,0,.459-.744v-3.113a.673.673,0,0,0-.3-.564.767.767,0,0,1-.346-.647v-3.226a2.23,2.23,0,0,1,2.226-2.226h.692a2.23,2.23,0,0,1,2.226,2.226v3.226a.786.786,0,0,1-.346.647.682.682,0,0,0-.3.564v3.113a.833.833,0,0,0,.466.744,24.822,24.822,0,0,1,4.459,2.857.673.673,0,0,0,.955-.09.688.688,0,0,0-.09-.962A26.707,26.707,0,0,0,150.341,148.205Z" transform="translate(-139.099 -137.4)" fill="#fff"/>
    </g>
  </g>
</svg>
