<svg xmlns="http://www.w3.org/2000/svg" width="30" height="31.873" viewBox="0 0 30 31.873">
  <g id="Group_3663" data-name="Group 3663" transform="translate(-51.408 -374.553)">
    <g id="customer" transform="translate(51.408 374.553)" opacity="0.6">
      <path id="Path_620" data-name="Path 620" d="M166.041,10.09A5.045,5.045,0,1,0,161,5.045,5.051,5.051,0,0,0,166.041,10.09Zm0-9.067a4.022,4.022,0,1,1-4.022,4.022A4.027,4.027,0,0,1,166.041,1.023Z" transform="translate(-151.041)" fill="#fff"/>
      <path id="Path_621" data-name="Path 621" d="M114.669,164.032c3.6,0,6.558,3.183,6.791,7.195H111.024a.515.515,0,0,0,0,1.023h10.9a.484.484,0,0,0,.452-.511c0-4.813-3.458-8.728-7.709-8.728s-7.709,3.916-7.709,8.728a.484.484,0,0,0,.452.511h1.806a.515.515,0,0,0,0-1.023h-1.34c.233-4.012,3.19-7.195,6.791-7.195Z" transform="translate(-99.669 -152.868)" fill="#fff"/>
      <path id="Path_622" data-name="Path 622" d="M9.57,333.046l-2.8-.471-1.314-2.522a.511.511,0,0,0-.907,0L3.23,332.575l-2.8.471a.511.511,0,0,0-.28.862l1.992,2.029-.419,2.813a.511.511,0,0,0,.734.533L5,338.016l2.546,1.268a.511.511,0,0,0,.734-.533l-.419-2.813,1.992-2.029a.511.511,0,0,0-.28-.862ZM6.95,335.4a.511.511,0,0,0-.141.434l.312,2.094-1.9-.944a.511.511,0,0,0-.456,0l-1.9.944.312-2.094a.511.511,0,0,0-.141-.434l-1.484-1.511,2.088-.351a.511.511,0,0,0,.369-.268L5,331.4l.979,1.878a.511.511,0,0,0,.369.268l2.088.351L6.95,335.4Z" transform="translate(0.001 -307.464)" fill="#fff"/>
      <path id="Path_623" data-name="Path 623" d="M171.237,333.046l-2.8-.471-1.314-2.522a.511.511,0,0,0-.907,0l-1.314,2.522-2.8.471a.511.511,0,0,0-.28.862l1.992,2.029-.419,2.813a.511.511,0,0,0,.734.533l2.546-1.268,2.546,1.268a.511.511,0,0,0,.734-.533l-.419-2.813,1.992-2.029a.511.511,0,0,0-.28-.862Zm-2.62,2.357a.511.511,0,0,0-.141.434l.312,2.094-1.9-.944a.511.511,0,0,0-.456,0l-1.9.944.312-2.094a.511.511,0,0,0-.141-.434l-1.484-1.511,2.088-.351a.511.511,0,0,0,.369-.268l.979-1.878.979,1.878a.511.511,0,0,0,.369.268l2.088.351Z" transform="translate(-151.665 -307.464)" fill="#fff"/>
      <path id="Path_624" data-name="Path 624" d="M333.3,333.392a.511.511,0,0,0-.4-.346l-2.8-.471-1.314-2.522a.511.511,0,0,0-.907,0l-1.314,2.522-2.8.471a.511.511,0,0,0-.28.862l1.992,2.029-.419,2.813a.511.511,0,0,0,.734.533l2.546-1.268,2.546,1.268a.511.511,0,0,0,.734-.533l-.419-2.813,1.992-2.029A.511.511,0,0,0,333.3,333.392Zm-3.022,2.011a.511.511,0,0,0-.141.434l.312,2.094-1.9-.944a.512.512,0,0,0-.456,0l-1.9.944.312-2.094a.511.511,0,0,0-.141-.434l-1.483-1.511,2.088-.351a.511.511,0,0,0,.369-.268l.979-1.878.979,1.878a.511.511,0,0,0,.369.268l2.088.351Z" transform="translate(-303.33 -307.464)" fill="#fff"/>
      <path id="Path_625" data-name="Path 625" d="M209.374,85.512a2.318,2.318,0,0,0,1.749-.8.511.511,0,1,0-.772-.671,1.292,1.292,0,0,1-1.955,0,.511.511,0,0,0-.772.671A2.318,2.318,0,0,0,209.374,85.512Z" transform="translate(-194.374 -78.532)" fill="#fff"/>
    </g>
  </g>
</svg>
