<svg xmlns="http://www.w3.org/2000/svg" width="30" height="28.972" viewBox="0 0 30 28.972">
  <g id="pie-graphic" transform="translate(0 -1.055)">
    <g id="_x31_9_1_" transform="translate(0 1.055)">
      <g id="Group_3600" data-name="Group 3600">
        <path id="Path_590" data-name="Path 590" d="M16.793,1.055a.6.6,0,0,0-.6.6V13.745a.6.6,0,0,0,.6.6H29.4a.6.6,0,0,0,.6-.6C30,5.8,25.063,1.055,16.793,1.055Zm.6,12.091V2.261c7.057.209,11.175,4.14,11.4,10.885Zm8.5,2.414H16.918a.618.618,0,0,0-.449.231.657.657,0,0,0-.137.5,1.708,1.708,0,0,1,.025.251,2.707,2.707,0,1,1-2.685-2.709c.02,0,.126.013.144.013a.541.541,0,0,0,.442-.164.6.6,0,0,0,.186-.434V4.1a.6.6,0,0,0-.6-.6C5.565,3.5,0,8.909,0,16.962A13.016,13.016,0,0,0,13.245,30.027c7.921,0,13.243-5.573,13.243-13.869A.6.6,0,0,0,25.891,15.56ZM13.245,28.831A11.7,11.7,0,0,1,1.2,16.962C1.2,9.82,6.013,4.957,13.25,4.7v7.947a3.911,3.911,0,1,0,4.3,4.106h7.734C25.043,24.114,20.373,28.831,13.245,28.831Z" transform="translate(0 -1.055)" fill="#ffd96a"/>
      </g>
    </g>
  </g>
</svg>
