<svg xmlns="http://www.w3.org/2000/svg" width="382.827" height="469.706" viewBox="0 0 382.827 469.706" style="opacity:.6">
  <g id="add-documents" transform="translate(-43.439)">
    <g id="Group_4058" data-name="Group 4058">
      <g id="Group_4059" data-name="Group 4059">
        <path id="Path_5921" data-name="Path 5921" d="M223.656,114.536v99.412l105.566-1.119L228.878,111.551Z" fill="#fff"/>
        <path id="Path_5918" data-name="Path 5918" d="M426.19,115.25a5.883,5.883,0,0,0-.3-1.533c-.072-.191-.119-.376-.2-.561a5.946,5.946,0,0,0-1.169-1.748L314.86,1.748A5.949,5.949,0,0,0,313.112.584a5.261,5.261,0,0,0-.561-.2,6.14,6.14,0,0,0-1.539-.3c-.126,0-.245-.077-.377-.077H136.486a5.969,5.969,0,0,0-5.967,5.967V97.821H49.406a5.969,5.969,0,0,0-5.967,5.967V463.739a5.965,5.965,0,0,0,5.967,5.967H333.22a5.965,5.965,0,0,0,5.967-5.967V371.885H420.3a5.965,5.965,0,0,0,5.967-5.967V115.626A3.793,3.793,0,0,0,426.19,115.25ZM405.9,109.659H316.608V20.371ZM327.253,457.766H55.373V109.755H217.6V213.447a5.969,5.969,0,0,0,5.967,5.967H327.254V457.766ZM229.528,118.192l89.288,89.288H229.528V118.192ZM339.187,359.951v-146.5a3.8,3.8,0,0,0-.078-.376,5.883,5.883,0,0,0-.3-1.533c-.072-.191-.119-.376-.2-.561a5.946,5.946,0,0,0-1.169-1.748L227.779,99.569a5.969,5.969,0,0,0-1.748-1.17c-.185-.084-.37-.131-.561-.2a5.642,5.642,0,0,0-1.539-.3c-.125-.006-.245-.078-.376-.078h-81.1V11.934H304.674V115.626a5.965,5.965,0,0,0,5.967,5.967H414.333V359.952H339.187Z" fill="#fff"/>
        <path id="Path_5919" data-name="Path 5919" d="M197.283,235.28H185.349v42.514H142.835v11.933h42.514v42.514h11.934V289.727H239.8V277.794H197.283Z" fill="#fff"/>
      </g>
    </g>
  </g>
</svg>
