<svg xmlns="http://www.w3.org/2000/svg" width="26.508" height="24.331" viewBox="0 0 26.508 24.331">
  <g id="chat_1_" data-name="chat (1)" transform="translate(0 0)">
    <path id="Path_585" data-name="Path 585" d="M9.442,24.349h5.743a.442.442,0,0,0,0-.884H9.442a.442.442,0,1,0,0,.884Z" transform="translate(-5.024 -14.187)" fill="#ffd96a"/>
    <path id="Path_586" data-name="Path 586" d="M20.929,29.465H9.442a.442.442,0,1,0,0,.884H20.929a.442.442,0,1,0,0-.884Z" transform="translate(-5.024 -17.536)" fill="#ffd96a"/>
    <path id="Path_587" data-name="Path 587" d="M20.929,35.465H9.442a.442.442,0,1,0,0,.884H20.929a.442.442,0,1,0,0-.884Z" transform="translate(-5.024 -20.886)" fill="#ffd96a"/>
    <path id="Path_588" data-name="Path 588" d="M23.889,2.5,8.805,2.465a2.623,2.623,0,0,0-2.62,2.62V7.349L2.62,7.356A2.623,2.623,0,0,0,0,9.976v9.34a2.622,2.622,0,0,0,2.62,2.619H5.3v4.418a.442.442,0,0,0,.769.3l4.287-4.716L17.7,21.9a2.623,2.623,0,0,0,2.62-2.619v-.05l2.324,2.556a.442.442,0,0,0,.769-.3V17.076h.473a2.623,2.623,0,0,0,2.62-2.619V5.116A2.623,2.623,0,0,0,23.889,2.5Zm-4.45,16.789A1.738,1.738,0,0,1,17.7,21.021l-7.542.031a.442.442,0,0,0-.325.144L6.185,25.211V21.493a.442.442,0,0,0-.442-.442H2.62A1.738,1.738,0,0,1,.884,19.316V9.976A1.738,1.738,0,0,1,2.621,8.239l4.006-.008h0L17.7,8.208a1.738,1.738,0,0,1,1.736,1.736v9.341Zm6.185-4.829a1.738,1.738,0,0,1-1.736,1.736h-.915a.442.442,0,0,0-.442.442v3.717l-2.209-2.43V9.945A2.623,2.623,0,0,0,17.7,7.325L7.069,7.346V5.084A1.738,1.738,0,0,1,8.8,3.348l15.084.031h0a1.738,1.738,0,0,1,1.736,1.736v9.341Z" transform="translate(0 -2.465)" fill="#fff"/>
  </g>
</svg>
