<svg xmlns="http://www.w3.org/2000/svg" width="28.468" height="33.192" viewBox="0 0 28.468 33.192">
  <g id="clipboard_1_" data-name="clipboard (1)" transform="translate(8.618 2.019)">
    <path id="Path_609" data-name="Path 609" d="M17.75-.463H15.125A.508.508,0,0,0,14.6.024a.508.508,0,0,0,.527.486h.326V27.357H-4.217V.51h2.193v1.1A1.605,1.605,0,0,0-.361,3.149H2.13a2.9,2.9,0,0,0,2.9,2.234H6.2A2.9,2.9,0,0,0,9.1,3.149h2.491a1.605,1.605,0,0,0,1.664-1.535v-2.1a1.605,1.605,0,0,0-1.664-1.535H-.361A1.605,1.605,0,0,0-2.025-.484v.021H-6.517a2.027,2.027,0,0,0-2.1,1.939V20.994a.508.508,0,0,0,.527.486.508.508,0,0,0,.527-.486V1.476A1.011,1.011,0,0,1-6.517.51h1.245V27.843a.508.508,0,0,0,.527.486H15.978a.508.508,0,0,0,.527-.486V.51H17.75a1.011,1.011,0,0,1,1.047.967V29.233a1.011,1.011,0,0,1-1.047.967H-6.516a1.011,1.011,0,0,1-1.047-.967V23.286a.508.508,0,0,0-.527-.486.508.508,0,0,0-.527.486v5.947a2.027,2.027,0,0,0,2.1,1.939H17.75a2.027,2.027,0,0,0,2.1-1.939V1.476a2.027,2.027,0,0,0-2.1-1.939ZM-.971-.484a.588.588,0,0,1,.61-.563H11.594a.588.588,0,0,1,.61.563v2.1a.588.588,0,0,1-.61.563H8.624a.508.508,0,0,0-.527.486A1.827,1.827,0,0,1,6.2,4.411H5.03A1.827,1.827,0,0,1,3.136,2.663a.508.508,0,0,0-.527-.486H-.361a.588.588,0,0,1-.61-.563Zm0,0" transform="translate(0)" fill="#ffd96a"/>
    <path id="Path_610" data-name="Path 610" d="M200.264,258.571h-2.927l-1.871-4.607a.574.574,0,0,0-1.056.049l-2.009,7.136-1.94-5.09a.579.579,0,0,0-1.006-.082l-1.614,2.595h-1.679a.5.5,0,1,0,0,1h2a.567.567,0,0,0,.483-.255l1.167-1.878,2.141,5.618a.573.573,0,0,0,1.06-.039l2.025-7.192,1.388,3.419a.554.554,0,0,0,.52.328h3.313a.5.5,0,1,0,0-1Zm0,0" transform="translate(-187.597 -247.249)" fill="#ffd96a"/>
    <path id="Path_611" data-name="Path 611" d="M200.264,639.355h-14.1a.5.5,0,1,0,0,1h14.1a.5.5,0,1,0,0-1Zm0,0" transform="translate(-187.597 -620.07)" fill="#ffd96a"/>
    <path id="Path_612" data-name="Path 612" d="M200.264,768.207h-14.1a.5.5,0,1,0,0,1h14.1a.5.5,0,1,0,0-1Zm0,0" transform="translate(-187.597 -744.642)" fill="#ffd96a"/>
  </g>
</svg>
