<?xml version="1.0" encoding="utf-8"?>
<!-- Generator: Adobe Illustrator 22.1.0, SVG Export Plug-In . SVG Version: 6.00 Build 0)  -->
<svg version="1.1" id="Layer_1" xmlns="http://www.w3.org/2000/svg" xmlns:xlink="http://www.w3.org/1999/xlink" x="0px" y="0px"
	 viewBox="0 0 30 30" style="enable-background:new 0 0 30 30;" xml:space="preserve">
<style type="text/css">
	.st0{display:none;}
	.st1{display:inline;}
	.st2{display:inline;stroke:#FFFFFF;stroke-width:0.25;stroke-miterlimit:10;}
	.st3{display:inline;fill:#FFD96A;}
	.st4{display:inline;fill:#FFD96A;stroke:#FFFFFF;stroke-width:0.25;stroke-miterlimit:10;}
</style>
<g class="st0">
	<path class="st1" d="M22.7,17.4c-2.9,0-5.3,2.4-5.3,5.3s2.4,5.3,5.3,5.3s5.3-2.4,5.3-5.3S25.7,17.4,22.7,17.4z M22.7,27.1
		c-2.4,0-4.4-2-4.4-4.4s2-4.4,4.4-4.4s4.4,2,4.4,4.4S25.1,27.1,22.7,27.1z"/>
	<path class="st1" d="M3.9,1.9h-1v1h-1v1h1v1h1v-1h1v-1h-1V1.9z"/>
	<path class="st1" d="M4.5,9.3l-1.1,1.1L2.3,9.3L1.6,10l1.1,1.1l-1.1,1.1l0.7,0.7l1.1-1.1l1.1,1.1l0.7-0.7l-1.1-1.1L5.2,10L4.5,9.3z
		"/>
	<path class="st1" d="M9.7,2.9h2.9v1H9.7V2.9z"/>
	<path class="st1" d="M9.7,9.7h2.9v1H9.7V9.7z"/>
	<path class="st1" d="M9.7,11.6h2.9v1H9.7V11.6z"/>
	<path class="st1" d="M1,6.8h4.8c0.5,0,1-0.4,1-1V1c0-0.5-0.4-1-1-1H1C0.4,0,0,0.4,0,1v4.8C0,6.3,0.4,6.8,1,6.8z M1,1h4.8l0,4.8H1V1
		z"/>
	<path class="st1" d="M1,14.5h4.8c0.5,0,1-0.4,1-1V8.7c0-0.5-0.4-1-1-1H1c-0.5,0-1,0.4-1,1v4.8C0,14.1,0.4,14.5,1,14.5z M1,8.7h4.8
		l0,4.8H1V8.7z"/>
	<path class="st1" d="M25.4,16c0.5-1.1,0.7-2.2,0.7-3.4c0-4.8-3.9-8.7-8.7-8.7c-1,0-2,0.2-2.9,0.5V1c0-0.5-0.4-1-1-1H8.7
		c-0.5,0-1,0.4-1,1v4.8c0,0.5,0.4,1,1,1h2.2c-0.3,0.3-0.5,0.6-0.7,1H8.7c-0.5,0-1,0.4-1,1v4.8c0,0.5,0.4,1,1,1h0.2
		c0.2,1,0.6,1.9,1.2,2.8l-1.4,1.4l-0.5-0.5l-7.5,7.5C0.3,26.1,0,26.8,0,27.5C0,28.9,1.1,30,2.5,30c0.7,0,1.3-0.3,1.8-0.7l7.5-7.5
		l-0.5-0.5l1.4-1.4c0.9,0.6,1.9,1,3,1.2c-0.1,0.5-0.2,1.1-0.2,1.6c0,4,3.3,7.3,7.3,7.3s7.3-3.3,7.3-7.3C30,19.7,28.1,17.1,25.4,16
		L25.4,16z M8.7,1h4.8l0,4.8H8.7V1z M12.3,6.8h1.2c0.5,0,1-0.4,1-1V5.4c0.9-0.4,1.9-0.6,2.9-0.6c4.3,0,7.7,3.5,7.7,7.7
		c0,1.1-0.2,2.1-0.7,3.1c-0.3-0.1-0.6-0.1-1-0.2c0.4-0.9,0.7-1.9,0.7-2.9c0-3.7-3-6.8-6.8-6.8c-1.8,0-3.5,0.7-4.7,1.9h-1.3
		C11.7,7.4,12,7.1,12.3,6.8L12.3,6.8z M17,18.4c-0.5,0-1-0.1-1.5-0.3v-5.3l0.7-0.7h1.3v5.7C17.3,18,17.1,18.2,17,18.4z M20.6,11.1
		h-4.8l-1.3,1.3V8.7c0-0.4-0.2-0.7-0.5-0.8c1-0.7,2.2-1.1,3.4-1.1c2,0,3.8,1.1,4.9,2.7L20.6,11.1z M14.5,13.8L14.5,13.8l0,3.8
		c-1.2-0.7-2.1-1.8-2.6-3.1h1.6C14,14.5,14.4,14.2,14.5,13.8L14.5,13.8z M18.4,12.1h1.9v3.8c-0.7,0.2-1.4,0.6-1.9,1V12.1z
		 M21.3,11.8l1.5-1.5c0.3,0.7,0.5,1.5,0.5,2.2c0,1-0.3,2-0.8,2.9c-0.4,0-0.8,0.1-1.1,0.1V11.8z M8.7,8.7h4.8l0,4.8H8.7V8.7z
		 M3.6,28.6C3.3,28.9,3,29,2.5,29C1.7,29,1,28.3,1,27.5c0-0.4,0.2-0.8,0.5-1.1l6.8-6.8l2.2,2.2L3.6,28.6z M10.6,20.6l-1.3-1.3
		l1.3-1.3c0.4,0.5,0.8,0.9,1.2,1.3L10.6,20.6z M9.9,14.5h1c0.7,2.5,2.9,4.3,5.4,4.7c-0.2,0.3-0.3,0.6-0.4,0.9
		C13,19.6,10.7,17.4,9.9,14.5L9.9,14.5z M22.7,29c-3.5,0-6.3-2.8-6.3-6.3s2.8-6.3,6.3-6.3s6.3,2.8,6.3,6.3S26.2,29,22.7,29z"/>
	<path class="st1" d="M6.3,23L7,22.3L7.7,23L7,23.7L6.3,23z"/>
	<path class="st1" d="M5,24.3l0.6-0.6l0.7,0.7L5.7,25L5,24.3z"/>
	<path class="st1" d="M7.7,21.6l0.7-0.7L9,21.6l-0.7,0.7L7.7,21.6z"/>
	<g class="st1">
		<path d="M20.8,19.7h3.7v0c-0.2,0.3-0.3,0.5-0.4,0.5h-1c0.1,0.2,0.2,0.4,0.3,0.6h1.1c0,0,0,0,0,0c-0.2,0.4-0.4,0.5-0.4,0.5h-0.7
			c0,0.2-0.1,0.4-0.3,0.7c-0.2,0.3-0.4,0.4-0.6,0.5c-0.4,0.2-0.7,0.3-1,0.3v0c0,0,0.7,0.9,2.2,2.7h-1c-1.5-1.7-2.2-2.5-2.2-2.6v-0.5
			l0,0c0.1,0,0.3,0,0.5,0c0.8,0,1.3-0.3,1.5-0.8c0-0.1,0-0.2,0-0.2h-2.2c0,0,0,0,0,0c0.2-0.4,0.4-0.5,0.4-0.5h1.8v0
			c-0.1-0.2-0.3-0.4-0.6-0.5c-0.2-0.1-0.4-0.1-0.6-0.1h-1v0C20.7,19.8,20.8,19.7,20.8,19.7z"/>
	</g>
</g>
<g class="st0">
	<path class="st1" d="M22.7,17.4c-2.9,0-5.3,2.4-5.3,5.3s2.4,5.3,5.3,5.3s5.3-2.4,5.3-5.3S25.7,17.4,22.7,17.4z M22.7,27.1
		c-2.4,0-4.4-2-4.4-4.4s2-4.4,4.4-4.4s4.4,2,4.4,4.4S25.1,27.1,22.7,27.1z"/>
	<path class="st1" d="M3.9,1.9h-1v1h-1v1h1v1h1v-1h1v-1h-1V1.9z"/>
	<path class="st1" d="M4.5,9.3l-1.1,1.1L2.3,9.3L1.6,10l1.1,1.1l-1.1,1.1l0.7,0.7l1.1-1.1l1.1,1.1l0.7-0.7l-1.1-1.1L5.2,10L4.5,9.3z
		"/>
	<path class="st1" d="M9.7,2.9h2.9v1H9.7V2.9z"/>
	<path class="st1" d="M9.7,9.7h2.9v1H9.7V9.7z"/>
	<path class="st1" d="M9.7,11.6h2.9v1H9.7V11.6z"/>
	<path class="st1" d="M1,6.8h4.8c0.5,0,1-0.4,1-1V1c0-0.5-0.4-1-1-1H1C0.4,0,0,0.4,0,1v4.8C0,6.3,0.4,6.8,1,6.8z M1,1h4.8l0,4.8H1V1
		z"/>
	<path class="st1" d="M1,14.5h4.8c0.5,0,1-0.4,1-1V8.7c0-0.5-0.4-1-1-1H1c-0.5,0-1,0.4-1,1v4.8C0,14.1,0.4,14.5,1,14.5z M1,8.7h4.8
		l0,4.8H1V8.7z"/>
	<path class="st1" d="M25.4,16c0.5-1.1,0.7-2.2,0.7-3.4c0-4.8-3.9-8.7-8.7-8.7c-1,0-2,0.2-2.9,0.5V1c0-0.5-0.4-1-1-1H8.7
		c-0.5,0-1,0.4-1,1v4.8c0,0.5,0.4,1,1,1h2.2c-0.3,0.3-0.5,0.6-0.7,1H8.7c-0.5,0-1,0.4-1,1v4.8c0,0.5,0.4,1,1,1h0.2
		c0.2,1,0.6,1.9,1.2,2.8l-1.4,1.4l-0.5-0.5l-7.5,7.5C0.3,26.1,0,26.8,0,27.5C0,28.9,1.1,30,2.5,30c0.7,0,1.3-0.3,1.8-0.7l7.5-7.5
		l-0.5-0.5l1.4-1.4c0.9,0.6,1.9,1,3,1.2c-0.1,0.5-0.2,1.1-0.2,1.6c0,4,3.3,7.3,7.3,7.3s7.3-3.3,7.3-7.3C30,19.7,28.1,17.1,25.4,16
		L25.4,16z M8.7,1h4.8l0,4.8H8.7V1z M12.3,6.8h1.2c0.5,0,1-0.4,1-1V5.4c0.9-0.4,1.9-0.6,2.9-0.6c4.3,0,7.7,3.5,7.7,7.7
		c0,1.1-0.2,2.1-0.7,3.1c-0.3-0.1-0.6-0.1-1-0.2c0.4-0.9,0.7-1.9,0.7-2.9c0-3.7-3-6.8-6.8-6.8c-1.8,0-3.5,0.7-4.7,1.9h-1.3
		C11.7,7.4,12,7.1,12.3,6.8L12.3,6.8z M17,18.4c-0.5,0-1-0.1-1.5-0.3v-5.3l0.7-0.7h1.3v5.7C17.3,18,17.1,18.2,17,18.4z M20.6,11.1
		h-4.8l-1.3,1.3V8.7c0-0.4-0.2-0.7-0.5-0.8c1-0.7,2.2-1.1,3.4-1.1c2,0,3.8,1.1,4.9,2.7L20.6,11.1z M14.5,13.8L14.5,13.8l0,3.8
		c-1.2-0.7-2.1-1.8-2.6-3.1h1.6C14,14.5,14.4,14.2,14.5,13.8L14.5,13.8z M18.4,12.1h1.9v3.8c-0.7,0.2-1.4,0.6-1.9,1V12.1z
		 M21.3,11.8l1.5-1.5c0.3,0.7,0.5,1.5,0.5,2.2c0,1-0.3,2-0.8,2.9c-0.4,0-0.8,0.1-1.1,0.1V11.8z M8.7,8.7h4.8l0,4.8H8.7V8.7z
		 M3.6,28.6C3.3,28.9,3,29,2.5,29C1.7,29,1,28.3,1,27.5c0-0.4,0.2-0.8,0.5-1.1l6.8-6.8l2.2,2.2L3.6,28.6z M10.6,20.6l-1.3-1.3
		l1.3-1.3c0.4,0.5,0.8,0.9,1.2,1.3L10.6,20.6z M9.9,14.5h1c0.7,2.5,2.9,4.3,5.4,4.7c-0.2,0.3-0.3,0.6-0.4,0.9
		C13,19.6,10.7,17.4,9.9,14.5L9.9,14.5z M22.7,29c-3.5,0-6.3-2.8-6.3-6.3s2.8-6.3,6.3-6.3s6.3,2.8,6.3,6.3S26.2,29,22.7,29z"/>
	<path class="st1" d="M6.3,23L7,22.3L7.7,23L7,23.7L6.3,23z"/>
	<path class="st1" d="M5,24.3l0.6-0.6l0.7,0.7L5.7,25L5,24.3z"/>
	<path class="st1" d="M7.7,21.6l0.7-0.7L9,21.6l-0.7,0.7L7.7,21.6z"/>
	<g class="st1">
		<path d="M20.8,19.7h3.7v0c-0.2,0.3-0.3,0.5-0.4,0.5h-1c0.1,0.2,0.2,0.4,0.3,0.6h1.1c0,0,0,0,0,0c-0.2,0.4-0.4,0.5-0.4,0.5h-0.7
			c0,0.2-0.1,0.4-0.3,0.7c-0.2,0.3-0.4,0.4-0.6,0.5c-0.4,0.2-0.7,0.3-1,0.3v0c0,0,0.7,0.9,2.2,2.7h-1c-1.5-1.7-2.2-2.5-2.2-2.6v-0.5
			l0,0c0.1,0,0.3,0,0.5,0c0.8,0,1.3-0.3,1.5-0.8c0-0.1,0-0.2,0-0.2h-2.2c0,0,0,0,0,0c0.2-0.4,0.4-0.5,0.4-0.5h1.8v0
			c-0.1-0.2-0.3-0.4-0.6-0.5c-0.2-0.1-0.4-0.1-0.6-0.1h-1v0C20.7,19.8,20.8,19.7,20.8,19.7z"/>
	</g>
</g>
<g class="st0">
	<path class="st1" d="M19.8,4.4V1.9h-8.2v6.8h10.6V4.4H19.8z"/>
	<path class="st1" d="M9.7,28.1H1.9v-6.8h7.7V28.1z"/>
	<path class="st1" d="M28.5,14.5h-4.4V4.2L20,0H0v30h24.2v-2.9h4.4c0.8,0,1.5-0.7,1.5-1.5V16C30,15.2,29.3,14.5,28.5,14.5z
		 M20.3,1.7l2.2,2.2h-2.2V1.7z M23.2,29H1V1h18.4v3.9h3.9v9.7H13.1c-0.8,0-1.5,0.7-1.5,1.5v9.7c0,0.8,0.7,1.5,1.5,1.5h10.2V29z
		 M29,25.6c0,0.3-0.2,0.5-0.5,0.5H13.1c-0.3,0-0.5-0.2-0.5-0.5V16c0-0.3,0.2-0.5,0.5-0.5h15.5c0.3,0,0.5,0.2,0.5,0.5V25.6z"/>
	<path class="st1" d="M22.3,17.4c0-0.5-0.4-1-1-1h-6.8c-0.5,0-1,0.4-1,1v2.9c0,0.5,0.4,1,1,1h6.8c0.5,0,1-0.4,1-1V17.4z M21.3,20.3
		h-6.8l0-2.9h6.8V20.3z"/>
	<path class="st1" d="M23.2,16.5h4.8v1h-4.8V16.5z"/>
	<path class="st1" d="M23.2,18.4h4.8v1h-4.8V18.4z"/>
	<path class="st1" d="M13.5,22.3h1.9v1h-1.9V22.3z"/>
	<path class="st1" d="M16.5,22.3h1.9v1h-1.9V22.3z"/>
	<path class="st1" d="M19.4,22.3h1.9v1h-1.9V22.3z"/>
	<path class="st1" d="M13.5,24.2h7.7v1h-7.7V24.2z"/>
	<path class="st1" d="M26.1,21.3c-0.1,0-0.2,0-0.3,0c0,0-0.1,0-0.1,0c-0.1,0-0.2,0-0.3,0.1c-0.1,0-0.1,0-0.1,0.1c0,0-0.1,0-0.1,0.1
		c-0.3-0.2-0.6-0.3-1-0.3c-1.1,0-1.9,0.9-1.9,1.9s0.9,1.9,1.9,1.9c0.3,0,0.7-0.1,1-0.3c0,0,0.1,0,0.1,0.1c0,0,0.1,0,0.1,0.1
		c0.1,0,0.2,0.1,0.3,0.1c0,0,0.1,0,0.1,0c0.1,0,0.2,0,0.3,0c1.1,0,1.9-0.9,1.9-1.9S27.2,21.3,26.1,21.3z M23.2,23.2c0-0.5,0.4-1,1-1
		c0.1,0,0.2,0,0.2,0c-0.2,0.3-0.2,0.6-0.2,0.9s0.1,0.7,0.2,0.9c-0.1,0-0.2,0-0.2,0C23.7,24.2,23.2,23.8,23.2,23.2z M26.1,24.2
		c-0.1,0-0.1,0-0.2,0c0,0-0.1,0-0.1,0c0,0,0,0,0,0c-0.1,0-0.2-0.1-0.3-0.2l-0.1-0.1c-0.2-0.2-0.3-0.4-0.3-0.7c0-0.3,0.1-0.5,0.3-0.7
		l0.1,0c0.1-0.1,0.2-0.1,0.3-0.2c0,0,0,0,0,0c0,0,0.1,0,0.1,0c0.1,0,0.1,0,0.2,0c0.5,0,1,0.4,1,1C27.1,23.8,26.7,24.2,26.1,24.2z"/>
	<path class="st2" d="M5.3,24.9l-1.1-1.1l-0.7,0.7l1.8,1.8l5.7-6.7L10.3,19L5.3,24.9z"/>
	<path class="st1" d="M12.6,12.1c0-1.1-0.7-2-1.8-2.3L9.2,9.3V9.1c0.9-0.6,1.5-1.6,1.5-2.8v-1c0-1.9-1.5-3.4-3.4-3.4
		S3.9,3.5,3.9,5.3v1c0,1.1,0.6,2.2,1.5,2.8v0.2L3.7,9.8c-1,0.3-1.8,1.3-1.8,2.3v1.4h10.6V12.1z M4.8,6.3v-1c0-1.3,1.1-2.4,2.4-2.4
		S9.7,4,9.7,5.3v1c0,1.3-1.1,2.4-2.4,2.4S4.8,7.6,4.8,6.3z M8.1,9.6l-0.9,0.9L6.4,9.6c0.3,0.1,0.6,0.1,0.9,0.1
		C7.6,9.7,7.9,9.6,8.1,9.6z M11.6,12.6H2.9v-0.5c0-0.6,0.4-1.2,1.1-1.4l1.7-0.5l1.6,1.6l1.6-1.6l1.7,0.5c0.6,0.2,1.1,0.8,1.1,1.4
		V12.6z"/>
	<path class="st1" d="M1.9,14.5h8.7v1H1.9V14.5z"/>
	<path class="st1" d="M1.9,16.5h8.7v1H1.9V16.5z"/>
	<path class="st1" d="M1.9,18.4h5.8v1H1.9V18.4z"/>
	<path class="st1" d="M13.5,12.6h8.7v1h-8.7V12.6z"/>
	<path class="st1" d="M13.5,10.6h8.7v1h-8.7V10.6z"/>
</g>
<g class="st0">
	<path class="st3" d="M19.8,4.4V1.9h-8.2v6.8h10.6V4.4H19.8z"/>
	<path class="st3" d="M9.7,28.1H1.9v-6.8h7.7V28.1z"/>
	<path class="st3" d="M28.5,14.5h-4.4V4.2L20,0H0v30h24.2v-2.9h4.4c0.8,0,1.5-0.7,1.5-1.5V16C30,15.2,29.3,14.5,28.5,14.5z
		 M20.3,1.7l2.2,2.2h-2.2V1.7z M23.2,29H1V1h18.4v3.9h3.9v9.7H13.1c-0.8,0-1.5,0.7-1.5,1.5v9.7c0,0.8,0.7,1.5,1.5,1.5h10.2V29z
		 M29,25.6c0,0.3-0.2,0.5-0.5,0.5H13.1c-0.3,0-0.5-0.2-0.5-0.5V16c0-0.3,0.2-0.5,0.5-0.5h15.5c0.3,0,0.5,0.2,0.5,0.5V25.6z"/>
	<path class="st3" d="M22.3,17.4c0-0.5-0.4-1-1-1h-6.8c-0.5,0-1,0.4-1,1v2.9c0,0.5,0.4,1,1,1h6.8c0.5,0,1-0.4,1-1V17.4z M21.3,20.3
		h-6.8l0-2.9h6.8V20.3z"/>
	<path class="st3" d="M23.2,16.5h4.8v1h-4.8V16.5z"/>
	<path class="st3" d="M23.2,18.4h4.8v1h-4.8V18.4z"/>
	<path class="st3" d="M13.5,22.3h1.9v1h-1.9V22.3z"/>
	<path class="st3" d="M16.5,22.3h1.9v1h-1.9V22.3z"/>
	<path class="st3" d="M19.4,22.3h1.9v1h-1.9V22.3z"/>
	<path class="st3" d="M13.5,24.2h7.7v1h-7.7V24.2z"/>
	<path class="st3" d="M26.1,21.3c-0.1,0-0.2,0-0.3,0c0,0-0.1,0-0.1,0c-0.1,0-0.2,0-0.3,0.1c-0.1,0-0.1,0-0.1,0.1c0,0-0.1,0-0.1,0.1
		c-0.3-0.2-0.6-0.3-1-0.3c-1.1,0-1.9,0.9-1.9,1.9s0.9,1.9,1.9,1.9c0.3,0,0.7-0.1,1-0.3c0,0,0.1,0,0.1,0.1c0,0,0.1,0,0.1,0.1
		c0.1,0,0.2,0.1,0.3,0.1c0,0,0.1,0,0.1,0c0.1,0,0.2,0,0.3,0c1.1,0,1.9-0.9,1.9-1.9S27.2,21.3,26.1,21.3z M23.2,23.2c0-0.5,0.4-1,1-1
		c0.1,0,0.2,0,0.2,0c-0.2,0.3-0.2,0.6-0.2,0.9s0.1,0.7,0.2,0.9c-0.1,0-0.2,0-0.2,0C23.7,24.2,23.2,23.8,23.2,23.2z M26.1,24.2
		c-0.1,0-0.1,0-0.2,0c0,0-0.1,0-0.1,0c0,0,0,0,0,0c-0.1,0-0.2-0.1-0.3-0.2l-0.1-0.1c-0.2-0.2-0.3-0.4-0.3-0.7c0-0.3,0.1-0.5,0.3-0.7
		l0.1,0c0.1-0.1,0.2-0.1,0.3-0.2c0,0,0,0,0,0c0,0,0.1,0,0.1,0c0.1,0,0.1,0,0.2,0c0.5,0,1,0.4,1,1C27.1,23.8,26.7,24.2,26.1,24.2z"/>
	<path class="st4" d="M5.3,24.9l-1.1-1.1l-0.7,0.7l1.8,1.8l5.7-6.7L10.3,19L5.3,24.9z"/>
	<path class="st3" d="M12.6,12.1c0-1.1-0.7-2-1.8-2.3L9.2,9.3V9.1c0.9-0.6,1.5-1.6,1.5-2.8v-1c0-1.9-1.5-3.4-3.4-3.4
		S3.9,3.5,3.9,5.3v1c0,1.1,0.6,2.2,1.5,2.8v0.2L3.7,9.8c-1,0.3-1.8,1.3-1.8,2.3v1.4h10.6V12.1z M4.8,6.3v-1c0-1.3,1.1-2.4,2.4-2.4
		S9.7,4,9.7,5.3v1c0,1.3-1.1,2.4-2.4,2.4S4.8,7.6,4.8,6.3z M8.1,9.6l-0.9,0.9L6.4,9.6c0.3,0.1,0.6,0.1,0.9,0.1
		C7.6,9.7,7.9,9.6,8.1,9.6z M11.6,12.6H2.9v-0.5c0-0.6,0.4-1.2,1.1-1.4l1.7-0.5l1.6,1.6l1.6-1.6l1.7,0.5c0.6,0.2,1.1,0.8,1.1,1.4
		V12.6z"/>
	<path class="st3" d="M1.9,14.5h8.7v1H1.9V14.5z"/>
	<path class="st3" d="M1.9,16.5h8.7v1H1.9V16.5z"/>
	<path class="st3" d="M1.9,18.4h5.8v1H1.9V18.4z"/>
	<path class="st3" d="M13.5,12.6h8.7v1h-8.7V12.6z"/>
	<path class="st3" d="M13.5,10.6h8.7v1h-8.7V10.6z"/>
</g>
<g>
	<path d="M27.6,14.5h-3.4V9.2c0-1.3-0.8-2.5-1.9-3c0.9-0.6,1.4-1.6,1.4-2.8c0-1.9-1.5-3.4-3.4-3.4s-3.4,1.5-3.4,3.4
		c0,0.9,0.4,1.8,1,2.4h-3.4V4.4c0-0.8-0.7-1.5-1.5-1.5H4.4c-0.8,0-1.5,0.7-1.5,1.5v10.2H2.4c-1.3,0-2.4,1.1-2.4,2.4v10.6
		C0,28.9,1.1,30,2.4,30h25.2c1.3,0,2.4-1.1,2.4-2.4V16.9C30,15.6,28.9,14.5,27.6,14.5z M24.2,23.2v-5.8h1v9.7H4.8v-7.7h8.2
		c0.8,0,1.5-0.7,1.5-1.5v-0.5h1.2c-0.2,0.5-0.3,1-0.3,1.5l0,4.1c-0.1,0.5,0.1,1,0.4,1.4c0.3,0.4,0.8,0.7,1.3,0.7c0.1,0,0.2,0,0.2,0
		c1,0,1.8-0.7,1.9-1.7l0-4.1c0-0.3,0.1-0.5,0.2-0.7l0.8-1.3v5.9c0,1.1,0.9,1.9,1.9,1.9C23.3,25.2,24.2,24.3,24.2,23.2L24.2,23.2z
		 M5.8,18.4V3.9h1v14.5H5.8z M17.4,9.7v4.7l-0.1,0.1h-2.8V9.7L17.4,9.7z M16.2,16.5h-1.7v-1h2.3L16.2,16.5z M17.9,3.4
		C17.9,2.1,19,1,20.3,1s2.4,1.1,2.4,2.4s-1.1,2.4-2.4,2.4S17.9,4.7,17.9,3.4z M20.8,6.8c1.3,0,2.4,1.1,2.4,2.4v14c0,0.5-0.4,1-1,1
		s-1-0.4-1-1v-6.9c0-0.6-0.3-1.3-0.7-1.7l-0.4-0.4l-0.7,0.7l0.4,0.4c0.1,0.1,0.2,0.3,0.3,0.4l-1.5,2.5c-0.2,0.4-0.3,0.8-0.3,1.2l0,4
		c-0.1,0.5-0.5,0.9-1.1,0.8c-0.3,0-0.5-0.2-0.6-0.4c-0.2-0.2-0.2-0.5-0.2-0.7l0,0l0-4.1c0-0.6,0.2-1.2,0.4-1.7l1.5-2.6v-5h0.2
		c0.6,0,1.3-0.3,1.7-0.7l0.4-0.4L20,7.9l-0.4,0.4c-0.3,0.3-0.6,0.4-1,0.4h-6.9c-0.5,0-1-0.4-1-1s0.4-1,1-1L20.8,6.8z M13.5,4.4v1.5
		h-1.9c-1.1,0-1.9,0.9-1.9,1.9c0,1.1,0.9,1.9,1.9,1.9h1.9v8.2c0,0.3-0.2,0.5-0.5,0.5H7.7V3.9h5.3C13.3,3.9,13.5,4.1,13.5,4.4z
		 M3.9,4.4c0-0.3,0.2-0.5,0.5-0.5h0.5v14.5H4.4c-0.3,0-0.5-0.2-0.5-0.5V4.4z M29,27.6c0,0.8-0.7,1.5-1.5,1.5H2.4
		C1.6,29,1,28.4,1,27.6V16.9c0-0.8,0.7-1.5,1.5-1.5h0.5v2.4c0,0.6,0.4,1.2,1,1.4v7.8c0,0.5,0.4,1,1,1h20.3c0.5,0,1-0.4,1-1v-9.7
		c0-0.5-0.4-1-1-1h-1v-1h3.4c0.8,0,1.5,0.7,1.5,1.5V27.6z"/>
	<path d="M1.9,23.7h1v1h-1V23.7z"/>
	<path d="M1.9,19.8h1v2.9h-1V19.8z"/>
	<path d="M27.1,20.3h1v3.9h-1V20.3z"/>
	<path d="M9.7,17.4h1.9c0.5,0,1-0.4,1-1v-2.9c0-0.5-0.4-1-1-1H9.7c-0.5,0-1,0.4-1,1v2.9C8.7,17,9.1,17.4,9.7,17.4z M9.7,13.5l1.9,0
		v2.9H9.7V13.5z"/>
	<path d="M5.8,20.3h1v5.8h-1V20.3z"/>
	<path d="M7.7,20.3h1v5.8h-1V20.3z"/>
	<path d="M9.7,20.3h1v5.8h-1V20.3z"/>
	<path d="M11.6,21.3h1v1h-1V21.3z"/>
	<path d="M11.6,23.2h1v1h-1V23.2z"/>
	<path d="M11.6,25.2h1v1h-1V25.2z"/>
</g>
<g class="st0">
	<path class="st3" d="M60.6,14.5h-3.4V9.2c0-1.3-0.8-2.5-1.9-3c0.9-0.6,1.4-1.6,1.4-2.8c0-1.9-1.5-3.4-3.4-3.4
		c-1.9,0-3.4,1.5-3.4,3.4c0,0.9,0.4,1.8,1,2.4h-3.4V4.4c0-0.8-0.7-1.5-1.5-1.5h-8.7c-0.8,0-1.5,0.7-1.5,1.5v10.2h-0.5
		c-1.3,0-2.4,1.1-2.4,2.4v10.6c0,1.3,1.1,2.4,2.4,2.4h25.2c1.3,0,2.4-1.1,2.4-2.4V16.9C63,15.6,61.9,14.5,60.6,14.5z M57.2,23.2
		v-5.8h1v9.7H37.8v-7.7h8.2c0.8,0,1.5-0.7,1.5-1.5v-0.5h1.2c-0.2,0.5-0.3,1-0.3,1.5l0,4.1c-0.1,0.5,0.1,1,0.4,1.4
		c0.3,0.4,0.8,0.7,1.3,0.7c0.1,0,0.2,0,0.2,0c1,0,1.8-0.7,1.9-1.7l0-4.1c0-0.3,0.1-0.5,0.2-0.7l0.8-1.3v5.9c0,1.1,0.9,1.9,1.9,1.9
		C56.3,25.2,57.2,24.3,57.2,23.2L57.2,23.2z M38.8,18.4V3.9h1v14.5H38.8z M50.4,9.7v4.7l-0.1,0.1h-2.8V9.7L50.4,9.7z M49.2,16.5
		h-1.7v-1h2.3L49.2,16.5z M50.9,3.4C50.9,2.1,52,1,53.3,1c1.3,0,2.4,1.1,2.4,2.4s-1.1,2.4-2.4,2.4C52,5.8,50.9,4.7,50.9,3.4z
		 M53.8,6.8c1.3,0,2.4,1.1,2.4,2.4v14c0,0.5-0.4,1-1,1s-1-0.4-1-1v-6.9c0-0.6-0.3-1.3-0.7-1.7l-0.4-0.4l-0.7,0.7l0.4,0.4
		c0.1,0.1,0.2,0.3,0.3,0.4l-1.5,2.5c-0.2,0.4-0.3,0.8-0.3,1.2l0,4c-0.1,0.5-0.5,0.9-1.1,0.8c-0.3,0-0.5-0.2-0.6-0.4
		c-0.2-0.2-0.2-0.5-0.2-0.7l0,0l0-4.1c0-0.6,0.2-1.2,0.4-1.7l1.5-2.6v-5h0.2c0.6,0,1.3-0.3,1.7-0.7l0.4-0.4L53,7.9l-0.4,0.4
		c-0.3,0.3-0.6,0.4-1,0.4h-6.9c-0.5,0-1-0.4-1-1s0.4-1,1-1L53.8,6.8z M46.5,4.4v1.5h-1.9c-1.1,0-1.9,0.9-1.9,1.9
		c0,1.1,0.9,1.9,1.9,1.9h1.9v8.2c0,0.3-0.2,0.5-0.5,0.5h-5.3V3.9h5.3C46.3,3.9,46.5,4.1,46.5,4.4z M36.9,4.4c0-0.3,0.2-0.5,0.5-0.5
		h0.5v14.5h-0.5c-0.3,0-0.5-0.2-0.5-0.5V4.4z M62,27.6c0,0.8-0.7,1.5-1.5,1.5H35.4c-0.8,0-1.5-0.7-1.5-1.5V16.9
		c0-0.8,0.7-1.5,1.5-1.5h0.5v2.4c0,0.6,0.4,1.2,1,1.4v7.8c0,0.5,0.4,1,1,1h20.3c0.5,0,1-0.4,1-1v-9.7c0-0.5-0.4-1-1-1h-1v-1h3.4
		c0.8,0,1.5,0.7,1.5,1.5V27.6z"/>
	<path class="st3" d="M34.9,23.7h1v1h-1V23.7z"/>
	<path class="st3" d="M34.9,19.8h1v2.9h-1V19.8z"/>
	<path class="st3" d="M60.1,20.3h1v3.9h-1V20.3z"/>
	<path class="st3" d="M42.7,17.4h1.9c0.5,0,1-0.4,1-1v-2.9c0-0.5-0.4-1-1-1h-1.9c-0.5,0-1,0.4-1,1v2.9C41.7,17,42.1,17.4,42.7,17.4z
		 M42.7,13.5l1.9,0v2.9h-1.9V13.5z"/>
	<path class="st3" d="M38.8,20.3h1v5.8h-1V20.3z"/>
	<path class="st3" d="M40.7,20.3h1v5.8h-1V20.3z"/>
	<path class="st3" d="M42.7,20.3h1v5.8h-1V20.3z"/>
	<path class="st3" d="M44.6,21.3h1v1h-1V21.3z"/>
	<path class="st3" d="M44.6,23.2h1v1h-1V23.2z"/>
	<path class="st3" d="M44.6,25.2h1v1h-1V25.2z"/>
</g>
</svg>
