<svg xmlns="http://www.w3.org/2000/svg" width="30" height="33.488" viewBox="0 0 30 33.488">
  <g id="user_7_" data-name="user (7)" transform="translate(-72.123 -52.043)">
    <g id="Group_3603" data-name="Group 3603" transform="translate(72.123 52.043)">
      <path id="Path_600" data-name="Path 600" d="M55.5,10.018a3.2,3.2,0,0,0-5.621-2.106L43.54,4.24A3.207,3.207,0,1,0,37.3,3.207a3.164,3.164,0,0,0,.171,1.026L31.128,7.905a3.206,3.206,0,1,0-3.1,5.238l.007,7.194a3.206,3.206,0,1,0,3.057,5.279l6.36,3.672a3.169,3.169,0,0,0-.157.992,3.207,3.207,0,0,0,6.414,0,3.169,3.169,0,0,0-.157-.992l6.36-3.672a3.206,3.206,0,1,0,3-5.293V13.157A3.194,3.194,0,0,0,55.5,10.018ZM52.293,8.049a1.969,1.969,0,1,1-1.969,1.969A1.97,1.97,0,0,1,52.293,8.049ZM40.5,1.245a1.971,1.971,0,0,1,1.737,2.9.289.289,0,0,0-.034.048l-.021.041A1.968,1.968,0,1,1,40.5,1.245ZM26.745,10.018a1.969,1.969,0,1,1,1.969,1.969A1.97,1.97,0,0,1,26.745,10.018Zm1.969,15.427a1.969,1.969,0,1,1,1.969-1.969A1.97,1.97,0,0,1,28.714,25.446ZM40.5,32.25a1.969,1.969,0,1,1,1.969-1.969A1.97,1.97,0,0,1,40.5,32.25Zm2.441-4.041a3.193,3.193,0,0,0-4.883,0L31.73,24.557a3.15,3.15,0,0,0,.191-1.08,3.21,3.21,0,0,0-2.646-3.159l-.007-7.146A3.207,3.207,0,0,0,31.75,8.979l6.339-3.672a3.2,3.2,0,0,0,4.835,0l6.339,3.672a3.206,3.206,0,0,0,2.414,4.178v7.167a3.207,3.207,0,0,0-2.585,3.146,3.121,3.121,0,0,0,.191,1.08Zm11.318-4.732a1.969,1.969,0,1,1-1.969-1.969A1.97,1.97,0,0,1,54.262,23.476Z" transform="translate(-25.5)" fill="#ffd96a"/>
      <path id="Path_601" data-name="Path 601" d="M149.906,147.787v-2.364a2.037,2.037,0,0,0,.622-1.475v-3.1a3.452,3.452,0,0,0-3.448-3.448h-.665a3.452,3.452,0,0,0-3.448,3.448v3.1a2.066,2.066,0,0,0,.622,1.475v2.364a25.591,25.591,0,0,0-4.25,2.769.657.657,0,0,0,.839,1.012,23.427,23.427,0,0,1,4.286-2.747.786.786,0,0,0,.441-.716v-2.993a.647.647,0,0,0-.289-.542.737.737,0,0,1-.333-.622v-3.1a2.144,2.144,0,0,1,2.14-2.14h.665a2.144,2.144,0,0,1,2.14,2.14v3.1a.756.756,0,0,1-.332.622.656.656,0,0,0-.289.542v2.993a.8.8,0,0,0,.448.716,23.862,23.862,0,0,1,4.286,2.747.647.647,0,0,0,.918-.087.661.661,0,0,0-.087-.925A25.674,25.674,0,0,0,149.906,147.787Z" transform="translate(-131.745 -128.368)" fill="#ffd96a"/>
    </g>
  </g>
</svg>
