<?xml version="1.0" encoding="utf-8"?>
<!-- Generator: Adobe Illustrator 22.1.0, SVG Export Plug-In . SVG Version: 6.00 Build 0)  -->
<svg version="1.1" id="Capa_1" xmlns="http://www.w3.org/2000/svg" xmlns:xlink="http://www.w3.org/1999/xlink" x="0px" y="0px"
	 viewBox="0 0 384 384" style="enable-background:new 0 0 384 384;" xml:space="preserve">
<style type="text/css">
	.st0{fill:#FFD96A;}
</style>
<g>
	<g>
		<path class="st0" d="M280,55.7c-7.7-4.4-17.4-1.8-21.8,5.9c-4.4,7.7-1.8,17.4,5.9,21.9c44.4,25.6,72,73.4,72,124.6
			c0,79.4-64.6,144-144,144S48,287.4,48,208c0-51.2,27.6-99,72-124.6c7.7-4.4,10.3-14.2,5.9-21.9s-14.2-10.3-21.8-5.9
			C49.7,87,16,145.4,16,208c0,97,79,176,176,176s176-79,176-176C368,145.4,334.3,87,280,55.7z"/>
	</g>
</g>
<g>
	<g>
		<path class="st0" d="M288,192h-80V16c0-8.8-7.2-16-16-16s-16,7.2-16,16v192c0,8.8,7.2,16,16,16h96c8.8,0,16-7.2,16-16
			S296.8,192,288,192z"/>
	</g>
</g>
<g>
	<g>
		<path class="st0" d="M192,296c-48.5,0-88-39.5-88-88c0-8.8-7.2-16-16-16s-16,7.2-16,16c0,66.2,53.8,120,120,120
			c8.8,0,16-7.2,16-16S200.8,296,192,296z"/>
	</g>
</g>
</svg>
